# xmcd CD database file
#
# Track frame offsets:
#	150
#	24429
#	43919
#	66276
#	84434
#	100592
#	120788
#	138194
#	155893
#	179192
#	200260
#	219464
#	235908
#	255099
#	269725
#
# Disc length: 3904 seconds
#
# Revision: 3
# Processed by: cddbd v1.4PL0 Copyright (c) Steve Scherf et al.
# Submitted via: CDex 1.40Release
#
DISCID=cf0f3e0f
DTITLE=Tim Mcgraw - Tim Mcgraw And The Dancehall Doctors
DYEAR=2002
DGENRE=Country
TTITLE0=Comfort Me
TTITLE1=Tickin' Away
TTITLE2=Home
TTITLE3=Red Ragtop
TTITLE4=That's Why God Made Mexico
TTITLE5=Watch The Wind Blow By
TTITLE6=Illegal
TTITLE7=Sleep Tonight
TTITLE8=I Know How to Love You Well
TTITLE9=Sing Me Home
TTITLE10=She's My Kind of Rain
TTITLE11=Who Are They
TTITLE12=Real Good Man
TTITLE13=All We Ever Find
TTITLE14=Tiny Dancer
EXTD=YEAR: 2002 ID3G: 2
EXTT0=
EXTT1=
EXTT2=
EXTT3=
EXTT4=
EXTT5=
EXTT6=
EXTT7=
EXTT8=
EXTT9=
EXTT10=
EXTT11=
EXTT12=
EXTT13=
EXTT14=
PLAYORDER=
